<?xml version="1.0" encoding="utf-8"?>
<!-- Generator: Adobe Illustrator 24.1.2, SVG Export Plug-In . SVG Version: 6.00 Build 0)  -->
<svg version="1.1" id="Livello_1" xmlns="http://www.w3.org/2000/svg" xmlns:xlink="http://www.w3.org/1999/xlink" x="0px" y="0px"
	 viewBox="0 0 595.28 595.28" style="enable-background:new 0 0 595.28 595.28;" xml:space="preserve">
<style type="text/css">
	.st0{enable-background:new    ;}
	.st1{fill:#9D4701;}
	.st2{fill:none;}
	.st3{fill:url(#SVGID_1_);}
	.st4{fill:url(#SVGID_2_);}
	.st5{fill:none;stroke:url(#SVGID_3_);stroke-width:7.5607;stroke-miterlimit:10;}
	.st6{fill:none;stroke:#AB5417;stroke-width:7.5607;stroke-miterlimit:10;}
</style>
<g class="st0">
	<path class="st1" d="M54.29,529.63l-3.64-9.77H36.47l-3.55,9.77h-3.41l12.59-33.06h3.09l12.52,33.06H54.29z M44.22,502.36
		c-0.11-0.29-0.22-0.63-0.33-1.01c-0.12-0.38-0.21-0.82-0.29-1.31H43.5c-0.09,0.49-0.2,0.93-0.31,1.31
		c-0.12,0.38-0.23,0.72-0.33,1.01l-5.35,14.71h12.1L44.22,502.36z"/>
	<path class="st1" d="M89.89,529.63l-4.98-9.47c-0.49-0.94-0.97-1.72-1.43-2.35c-0.46-0.63-0.94-1.13-1.43-1.51
		s-1.02-0.65-1.58-0.81c-0.56-0.16-1.19-0.24-1.88-0.24h-3.64v14.38h-3.07v-33.06h9.52c1.25,0,2.45,0.18,3.61,0.55
		c1.16,0.37,2.19,0.91,3.1,1.64s1.63,1.63,2.18,2.72c0.55,1.09,0.82,2.36,0.82,3.8c0,1.17-0.18,2.24-0.53,3.23s-0.86,1.86-1.51,2.62
		c-0.65,0.76-1.44,1.41-2.37,1.94c-0.93,0.53-1.98,0.93-3.15,1.19v0.09c0.45,0.18,0.85,0.42,1.22,0.71
		c0.37,0.29,0.73,0.65,1.07,1.06s0.69,0.89,1.03,1.43c0.34,0.54,0.69,1.15,1.06,1.84l5.56,10.24H89.89z M74.95,499.38v13.07h5.49
		c1.11,0,2.12-0.16,3.04-0.48c0.92-0.32,1.71-0.78,2.36-1.38c0.65-0.6,1.16-1.32,1.52-2.17c0.36-0.84,0.54-1.8,0.54-2.86
		c0-1.92-0.62-3.43-1.86-4.53c-1.24-1.1-3.02-1.65-5.36-1.65H74.95z"/>
	<path class="st1" d="M108.08,529.63v-33.06h16.11v2.81h-13.05v12.13h12.08v2.77h-12.08v12.56h13.79v2.79H108.08z"/>
	<path class="st1" d="M162.44,529.63l-3.64-9.77h-14.18l-3.55,9.77h-3.41l12.59-33.06h3.09l12.52,33.06H162.44z M152.37,502.36
		c-0.11-0.29-0.22-0.63-0.33-1.01c-0.12-0.38-0.21-0.82-0.29-1.31h-0.09c-0.09,0.49-0.2,0.93-0.31,1.31
		c-0.12,0.38-0.23,0.72-0.33,1.01l-5.35,14.71h12.1L152.37,502.36z"/>
	<path class="st1" d="M201.94,529.63v-33.06h3.07v30.27h13.28v2.79H201.94z"/>
	<path class="st1" d="M235.9,529.63h-3.07v-33.06h3.07V529.63z"/>
	<path class="st1" d="M276.11,529.63l-18.35-26.53c-0.23-0.34-0.46-0.68-0.68-1.04s-0.4-0.7-0.54-1.04h-0.12
		c0.03,0.28,0.06,0.66,0.08,1.15s0.03,1.11,0.03,1.84v25.61h-3.07v-33.06h3.39l18.05,26.21c0.28,0.42,0.53,0.8,0.75,1.16
		c0.22,0.36,0.43,0.7,0.61,1h0.12c-0.06-0.51-0.11-1.08-0.14-1.71c-0.03-0.63-0.05-1.33-0.05-2.1v-24.58h3.09v33.06H276.11z"/>
	<path class="st1" d="M321.13,527.35c-3.4,1.91-6.99,2.86-10.79,2.86c-2.4,0-4.55-0.41-6.45-1.23c-1.91-0.82-3.53-1.97-4.86-3.43
		c-1.34-1.47-2.36-3.22-3.08-5.26c-0.71-2.04-1.07-4.28-1.07-6.72c0-1.61,0.17-3.17,0.52-4.66c0.35-1.49,0.85-2.89,1.52-4.2
		c0.67-1.31,1.49-2.49,2.46-3.55c0.97-1.06,2.08-1.97,3.33-2.74c1.25-0.77,2.63-1.36,4.14-1.78s3.13-0.62,4.86-0.62
		c3.27,0,6.19,0.58,8.76,1.75v3.39c-2.83-1.57-5.87-2.35-9.13-2.35c-2.01,0-3.83,0.37-5.46,1.11c-1.63,0.74-3.02,1.75-4.16,3.04
		c-1.15,1.29-2.03,2.82-2.66,4.58s-0.95,3.67-0.97,5.73c-0.02,2.04,0.25,3.93,0.79,5.66c0.55,1.73,1.36,3.22,2.43,4.48
		c1.08,1.26,2.4,2.24,3.99,2.95c1.58,0.71,3.41,1.06,5.49,1.06c2.8,0,5.22-0.58,7.29-1.75v-10.07h-7.52v-2.79h10.58V527.35z"/>
	<path class="st1" d="M361.11,516.35c0,9.24-4.06,13.85-12.17,13.85c-7.73,0-11.6-4.45-11.6-13.35v-20.29h3.07v20.01
		c0,3.63,0.73,6.34,2.19,8.14s3.72,2.7,6.78,2.7c5.78,0,8.67-3.5,8.67-10.51v-20.33h3.07V516.35z"/>
	<path class="st1" d="M381.31,529.63h-3.07v-33.06h3.07V529.63z"/>
	<path class="st1" d="M397.58,524.79c0.55,0.42,1.16,0.79,1.83,1.12c0.67,0.33,1.35,0.61,2.05,0.83c0.7,0.22,1.4,0.39,2.11,0.51
		s1.38,0.17,2.03,0.17c2.5,0,4.38-0.48,5.63-1.45c1.25-0.97,1.87-2.36,1.87-4.17c0-0.88-0.15-1.64-0.44-2.29s-0.75-1.26-1.36-1.83
		c-0.62-0.57-1.39-1.13-2.33-1.69c-0.94-0.56-2.04-1.19-3.32-1.9c-1.41-0.77-2.62-1.5-3.63-2.18s-1.83-1.38-2.47-2.1
		c-0.64-0.71-1.11-1.49-1.41-2.32s-0.45-1.77-0.45-2.83c0-1.34,0.28-2.54,0.85-3.6s1.34-1.96,2.31-2.71c0.97-0.75,2.1-1.32,3.4-1.72
		s2.69-0.6,4.16-0.6c2.6,0,4.77,0.36,6.52,1.08v3.39c-1.95-1.12-4.24-1.68-6.87-1.68c-0.98,0-1.91,0.12-2.78,0.36
		s-1.63,0.59-2.28,1.05s-1.17,1.03-1.54,1.72c-0.38,0.68-0.57,1.48-0.57,2.39c0,0.86,0.13,1.6,0.38,2.22
		c0.25,0.62,0.66,1.21,1.22,1.76c0.56,0.55,1.3,1.1,2.21,1.65c0.91,0.55,2.03,1.17,3.35,1.88c1.38,0.74,2.59,1.46,3.62,2.16
		c1.03,0.7,1.89,1.43,2.57,2.19s1.2,1.57,1.53,2.42c0.34,0.85,0.51,1.8,0.51,2.85c0,1.44-0.27,2.72-0.81,3.82s-1.29,2.01-2.26,2.73
		c-0.97,0.72-2.12,1.27-3.46,1.64c-1.34,0.37-2.81,0.55-4.4,0.55c-0.52,0-1.15-0.04-1.87-0.13c-0.72-0.08-1.45-0.21-2.19-0.37
		s-1.44-0.35-2.11-0.58s-1.21-0.46-1.63-0.73V524.79z"/>
	<path class="st1" d="M441.57,499.38v30.25h-3.07v-30.25h-9.52v-2.81h22.13v2.81H441.57z"/>
	<path class="st1" d="M468.59,529.63h-3.07v-33.06h3.07V529.63z"/>
	<path class="st1" d="M508.39,528.41c-2.55,1.2-5.46,1.8-8.74,1.8c-2.34,0-4.46-0.41-6.36-1.23c-1.91-0.82-3.53-1.96-4.88-3.42
		s-2.38-3.2-3.11-5.21c-0.73-2.01-1.1-4.21-1.1-6.59c0-2.5,0.39-4.84,1.16-7s1.89-4.03,3.33-5.63c1.45-1.59,3.19-2.84,5.25-3.75
		c2.05-0.91,4.35-1.36,6.9-1.36c2.81,0,5.33,0.43,7.54,1.29v3.27c-2.37-1.18-4.89-1.78-7.58-1.78c-2.14,0-4.03,0.37-5.69,1.11
		c-1.66,0.74-3.06,1.76-4.2,3.08c-1.14,1.31-2.01,2.87-2.61,4.66c-0.6,1.79-0.9,3.75-0.9,5.87c0,1.91,0.27,3.7,0.81,5.38
		c0.54,1.68,1.33,3.16,2.39,4.42s2.36,2.26,3.93,3c1.57,0.74,3.39,1.11,5.46,1.11c3.18,0,5.98-0.67,8.39-2.01V528.41z"/>
	<path class="st1" d="M545.83,529.63l-3.64-9.77h-14.18l-3.55,9.77h-3.41l12.59-33.06h3.09l12.52,33.06H545.83z M535.75,502.36
		c-0.11-0.29-0.22-0.63-0.33-1.01c-0.12-0.38-0.21-0.82-0.29-1.31h-0.09c-0.09,0.49-0.2,0.93-0.31,1.31
		c-0.12,0.38-0.23,0.72-0.33,1.01l-5.35,14.71h12.1L535.75,502.36z"/>
</g>
<g>
	<path class="st2" d="M406.44,134.09c-85.21,0-154.28,58.77-154.28,131.27c0,15.64,3.23,30.64,9.13,44.55l-21.78,16.07l-90.07,70.65
		l135.81-50.09c28.25,30.49,72.02,50.09,121.2,50.09c85.21,0,154.28-58.77,154.28-131.27S491.64,134.09,406.44,134.09z"/>
	
		<linearGradient id="SVGID_1_" gradientUnits="userSpaceOnUse" x1="143.1306" y1="330.5398" x2="567.01" y2="330.5398" gradientTransform="matrix(1 0 0 -1 0 595.8898)">
		<stop  offset="0" style="stop-color:#9D4701"/>
		<stop  offset="1" style="stop-color:#F39200"/>
	</linearGradient>
	<path class="st3" d="M149.43,402.92c-2.23,0-4.36-1.19-5.5-3.23c-1.51-2.71-0.83-6.11,1.61-8.03l90.07-70.65l18.01-13.29
		c-5.16-13.66-7.77-27.89-7.77-42.37c0-75.86,72.03-137.57,160.58-137.57s160.58,61.71,160.58,137.57s-72.04,137.57-160.58,137.57
		c-47.74,0-92.27-17.83-122.9-49.05L151.6,402.53C150.9,402.8,150.16,402.92,149.43,402.92z M285.24,340.23
		c1.72,0,3.41,0.71,4.62,2.02c28.3,30.55,70.79,48.08,116.57,48.08c81.59,0,147.98-56.06,147.98-124.97s-66.38-124.97-147.98-124.97
		c-81.59,0-147.97,56.06-147.97,124.97c0,14.42,2.9,28.59,8.63,42.09c1.14,2.68,0.29,5.8-2.06,7.53l-21.78,16.07l-58.38,45.79
		l98.2-36.22C283.77,340.36,284.51,340.23,285.24,340.23z"/>
</g>
<g>
	<path class="st2" d="M406.88,168.45c-63.26,0-114.73,43.47-114.73,96.91c0,16.3,4.81,31.67,13.27,45.17l196.11-99.85
		C480.83,185.2,446.13,168.45,406.88,168.45z"/>
	
		<linearGradient id="SVGID_2_" gradientUnits="userSpaceOnUse" x1="282.63" y1="358.9998" x2="510.16" y2="358.9998" gradientTransform="matrix(1 0 0 -1 0 595.8898)">
		<stop  offset="0" style="stop-color:#9D4701"/>
		<stop  offset="1" style="stop-color:#F39200"/>
	</linearGradient>
	<path class="st4" d="M292.15,265.36c0-53.43,51.47-96.91,114.73-96.91c39.26,0,73.96,16.75,94.65,42.22l8.63-4.4
		c-22.31-28.52-60.28-47.34-103.28-47.34c-68.51,0-124.25,47.74-124.25,106.43c0,17.86,5.19,34.69,14.3,49.49l8.49-4.32
		C296.96,297.03,292.15,281.66,292.15,265.36z"/>
</g>
<linearGradient id="SVGID_3_" gradientUnits="userSpaceOnUse" x1="24.4797" y1="356.6144" x2="241.3256" y2="356.6144" gradientTransform="matrix(1 0 0 -1 0 595.8898)">
	<stop  offset="0" style="stop-color:#9D4701"/>
	<stop  offset="1" style="stop-color:#F39200"/>
</linearGradient>
<path class="st5" d="M192.35,249.63c0-0.19,0.03-0.37,0.03-0.56v-50.18c0-12.41-10.15-22.56-22.56-22.56h-119
	c-12.41,0-22.56,10.15-22.56,22.56v50.18c0,12.41,10.15,22.56,22.56,22.56H163.6l66.23,25.83L192.35,249.63z"/>
<path class="st6" d="M173.56,243.14c0-0.13,0.02-0.26,0.02-0.39V208.2c0-8.54-7.87-15.53-17.5-15.53H63.77
	c-9.13,0-16.69,6.29-17.44,14.23"/>
</svg>
