<?xml version="1.0" encoding="UTF-8" standalone="no"?>
<!-- Generator: Adobe Illustrator 24.1.2, SVG Export Plug-In . SVG Version: 6.00 Build 0)  -->

<svg
   xmlns:dc="http://purl.org/dc/elements/1.1/"
   xmlns:cc="http://creativecommons.org/ns#"
   xmlns:rdf="http://www.w3.org/1999/02/22-rdf-syntax-ns#"
   xmlns:svg="http://www.w3.org/2000/svg"
   xmlns="http://www.w3.org/2000/svg"
   xmlns:sodipodi="http://sodipodi.sourceforge.net/DTD/sodipodi-0.dtd"
   xmlns:inkscape="http://www.inkscape.org/namespaces/inkscape"
   version="1.1"
   id="Livello_1"
   x="0px"
   y="0px"
   viewBox="0 0 595.28 595.28"
   style="enable-background:new 0 0 595.28 595.28;"
   xml:space="preserve"
   sodipodi:docname="A-linguistica.svg"
   inkscape:version="0.92.4 (5da689c313, 2019-01-14)"><metadata
   id="metadata42"><rdf:RDF><cc:Work
       rdf:about=""><dc:format>image/svg+xml</dc:format><dc:type
         rdf:resource="http://purl.org/dc/dcmitype/StillImage" /></cc:Work></rdf:RDF></metadata><defs
   id="defs40" /><sodipodi:namedview
   pagecolor="#ffffff"
   bordercolor="#666666"
   borderopacity="1"
   objecttolerance="10"
   gridtolerance="10"
   guidetolerance="10"
   inkscape:pageopacity="0"
   inkscape:pageshadow="2"
   inkscape:window-width="1366"
   inkscape:window-height="705"
   id="namedview38"
   showgrid="false"
   inkscape:zoom="1"
   inkscape:cx="258.6242"
   inkscape:cy="217.64001"
   inkscape:window-x="-8"
   inkscape:window-y="-8"
   inkscape:window-maximized="1"
   inkscape:current-layer="Livello_1" />
<style
   type="text/css"
   id="style2">
	.st0{fill:#9D4701;}
	.st1{font-family:'SegoeUI-Semilight';}
	.st2{font-size:47.2128px;}
	.st3{letter-spacing:9;}
	.st4{fill:none;}
	.st5{fill:url(#SVGID_1_);}
	.st6{fill:url(#SVGID_2_);}
	.st7{fill:none;stroke:url(#SVGID_3_);stroke-width:7.5607;stroke-miterlimit:10;}
	.st8{fill:none;stroke:#AB5417;stroke-width:7.5607;stroke-miterlimit:10;}
</style>
<text
   class="st0 st1 st2 st3"
   id="text4"
   x="10.466383"
   y="531.05664"
   style="font-style:normal;font-variant:normal;font-weight:bold;font-stretch:normal;font-size:49.18090439px;font-family:'Century Gothic';-inkscape-font-specification:'Century Gothic, Bold';font-variant-ligatures:normal;font-variant-caps:normal;font-variant-numeric:normal;font-feature-settings:normal;text-align:start;letter-spacing:9.37511826;writing-mode:lr-tb;text-anchor:start;fill:#9d4701;stroke-width:1.04167974"><tspan
     style="font-style:normal;font-variant:normal;font-weight:bold;font-stretch:normal;font-size:49.18090439px;font-family:'Century Gothic';-inkscape-font-specification:'Century Gothic, Bold';font-variant-ligatures:normal;font-variant-caps:normal;font-variant-numeric:normal;font-feature-settings:normal;text-align:start;writing-mode:lr-tb;text-anchor:start;stroke-width:1.04167974"
     id="tspan4781">AREA LINGUISTICA</tspan></text>



<g
   id="g15">
	<path
   class="st4"
   d="M406.44,134.09c-85.21,0-154.28,58.77-154.28,131.27c0,15.64,3.23,30.64,9.13,44.55l-21.78,16.07l-90.07,70.65   l135.81-50.09c28.25,30.49,72.02,50.09,121.2,50.09c85.21,0,154.28-58.77,154.28-131.27S491.64,134.09,406.44,134.09z"
   id="path6" />
	<linearGradient
   id="SVGID_1_"
   gradientUnits="userSpaceOnUse"
   x1="143.1305"
   y1="265.3577"
   x2="567.0151"
   y2="265.3577">
		<stop
   offset="0"
   style="stop-color:#9D4701"
   id="stop8" />
		<stop
   offset="1"
   style="stop-color:#F39200"
   id="stop10" />
	</linearGradient>
	<path
   class="st5"
   d="M149.43,402.92c-2.23,0-4.36-1.19-5.5-3.23c-1.51-2.71-0.83-6.11,1.61-8.03l90.07-70.65l18.01-13.29   c-5.16-13.66-7.77-27.89-7.77-42.37c0-75.86,72.03-137.57,160.58-137.57s160.58,61.71,160.58,137.57s-72.04,137.57-160.58,137.57   c-47.74,0-92.27-17.83-122.9-49.05l-131.93,48.66C150.9,402.8,150.16,402.92,149.43,402.92z M285.24,340.23   c1.72,0,3.41,0.71,4.62,2.02c28.3,30.55,70.79,48.08,116.57,48.08c81.59,0,147.98-56.06,147.98-124.97s-66.38-124.97-147.98-124.97   c-81.59,0-147.97,56.06-147.97,124.97c0,14.42,2.9,28.59,8.63,42.09c1.14,2.68,0.29,5.8-2.06,7.53l-21.78,16.07l-58.38,45.79   l98.2-36.22C283.77,340.36,284.51,340.23,285.24,340.23z"
   id="path13" />
</g>
<g
   id="g26">
	<path
   class="st4"
   d="M406.88,168.45c-63.26,0-114.73,43.47-114.73,96.91c0,16.3,4.81,31.67,13.27,45.17l196.11-99.85   C480.83,185.2,446.13,168.45,406.88,168.45z"
   id="path17" />
	<linearGradient
   id="SVGID_2_"
   gradientUnits="userSpaceOnUse"
   x1="282.63"
   y1="236.8875"
   x2="510.1615"
   y2="236.8875">
		<stop
   offset="0"
   style="stop-color:#9D4701"
   id="stop19" />
		<stop
   offset="1"
   style="stop-color:#F39200"
   id="stop21" />
	</linearGradient>
	<path
   class="st6"
   d="M292.15,265.36c0-53.43,51.47-96.91,114.73-96.91c39.26,0,73.96,16.75,94.65,42.22l8.63-4.4   c-22.31-28.52-60.28-47.34-103.28-47.34c-68.51,0-124.25,47.74-124.25,106.43c0,17.86,5.19,34.69,14.3,49.49l8.49-4.32   C296.96,297.03,292.15,281.66,292.15,265.36z"
   id="path24" />
</g>
<linearGradient
   id="SVGID_3_"
   gradientUnits="userSpaceOnUse"
   x1="24.4801"
   y1="239.2682"
   x2="241.3349"
   y2="239.2682">
	<stop
   offset="0"
   style="stop-color:#9D4701"
   id="stop28" />
	<stop
   offset="1"
   style="stop-color:#F39200"
   id="stop30" />
</linearGradient>
<path
   class="st7"
   d="M192.35,249.63c0-0.19,0.03-0.37,0.03-0.56v-50.18c0-12.41-10.15-22.56-22.56-22.56H50.82  c-12.41,0-22.56,10.15-22.56,22.56v50.18c0,12.41,10.15,22.56,22.56,22.56H163.6l66.23,25.83L192.35,249.63z"
   id="path33" />
<path
   class="st8"
   d="M173.56,243.14c0-0.13,0.02-0.26,0.02-0.39V208.2c0-8.54-7.87-15.53-17.5-15.53H63.77  c-9.13,0-16.69,6.29-17.44,14.23"
   id="path35" />
</svg>