<?xml version="1.0" encoding="utf-8"?>
<!-- Generator: Adobe Illustrator 24.1.2, SVG Export Plug-In . SVG Version: 6.00 Build 0)  -->
<svg version="1.1" id="Livello_1" xmlns="http://www.w3.org/2000/svg" xmlns:xlink="http://www.w3.org/1999/xlink" x="0px" y="0px"
	 viewBox="0 0 595.28 595.28" style="enable-background:new 0 0 595.28 595.28;" xml:space="preserve">
<style type="text/css">
	.st0{enable-background:new    ;}
	.st1{fill:#006A4A;}
	.st2{fill:none;stroke:url(#SVGID_1_);stroke-width:9.6265;stroke-miterlimit:10;}
	.st3{fill:none;stroke:url(#SVGID_2_);stroke-width:9.6265;stroke-miterlimit:10;}
	.st4{fill:none;stroke:url(#SVGID_3_);stroke-width:9.6265;stroke-miterlimit:10;}
	.st5{fill:none;stroke:url(#SVGID_4_);stroke-width:9.6265;stroke-miterlimit:10;}
	.st6{fill:none;stroke:url(#SVGID_5_);stroke-width:9.6265;stroke-miterlimit:10;}
	.st7{fill:none;stroke:url(#SVGID_6_);stroke-width:9.6265;stroke-miterlimit:10;}
</style>
<g class="st0">
	<path class="st1" d="M56.75,531l-3.56-9.55H39.34L35.87,531h-3.33l12.3-32.3h3.02L60.08,531H56.75z M46.91,504.35
		c-0.1-0.29-0.21-0.62-0.33-0.99c-0.11-0.38-0.21-0.8-0.28-1.28h-0.09c-0.09,0.48-0.19,0.91-0.3,1.28
		c-0.11,0.38-0.22,0.71-0.33,0.99l-5.23,14.37h11.83L46.91,504.35z"/>
	<path class="st1" d="M91.76,531l-4.87-9.26c-0.48-0.92-0.95-1.68-1.4-2.3c-0.45-0.62-0.92-1.11-1.4-1.48s-1-0.63-1.54-0.79
		c-0.55-0.16-1.16-0.24-1.84-0.24h-3.56V531h-3v-32.3h9.3c1.22,0,2.39,0.18,3.53,0.54c1.13,0.36,2.14,0.89,3.03,1.6
		c0.89,0.71,1.6,1.59,2.13,2.66s0.8,2.31,0.8,3.72c0,1.14-0.17,2.19-0.52,3.15c-0.35,0.96-0.84,1.81-1.48,2.56
		c-0.64,0.74-1.41,1.37-2.32,1.89c-0.91,0.52-1.93,0.91-3.07,1.16v0.09c0.44,0.18,0.83,0.41,1.19,0.7s0.71,0.63,1.05,1.04
		c0.34,0.41,0.67,0.87,1,1.4s0.68,1.13,1.04,1.8l5.43,10H91.76z M77.17,501.45v12.77h5.36c1.08,0,2.07-0.16,2.97-0.47
		c0.9-0.32,1.67-0.77,2.31-1.35c0.64-0.58,1.13-1.29,1.49-2.12c0.35-0.83,0.53-1.76,0.53-2.79c0-1.88-0.6-3.35-1.81-4.43
		c-1.21-1.07-2.96-1.61-5.24-1.61H77.17z"/>
	<path class="st1" d="M109.77,531v-32.3h15.75v2.75h-12.75v11.85h11.8v2.7h-11.8v12.28h13.47V531H109.77z"/>
	<path class="st1" d="M163.12,531l-3.56-9.55h-13.85l-3.47,9.55h-3.33l12.3-32.3h3.02l12.23,32.3H163.12z M153.28,504.35
		c-0.1-0.29-0.21-0.62-0.33-0.99c-0.11-0.38-0.21-0.8-0.28-1.28h-0.09c-0.09,0.48-0.19,0.91-0.3,1.28
		c-0.11,0.38-0.22,0.71-0.33,0.99l-5.23,14.37h11.83L153.28,504.35z"/>
	<path class="st1" d="M230.76,531v-22.3c0-1.14,0.09-2.98,0.27-5.52h-0.09c-0.21,0.68-0.4,1.26-0.57,1.76
		c-0.17,0.5-0.33,0.9-0.48,1.22L218.62,531h-1.28l-11.29-24.69c-0.33-0.75-0.67-1.81-1.01-3.18h-0.09c0.06,0.69,0.1,1.48,0.12,2.37
		s0.03,1.87,0.03,2.95V531h-2.93v-32.3h3.54l10.97,24.28c0.23,0.51,0.45,1.03,0.66,1.57c0.22,0.53,0.42,1.1,0.6,1.7h0.14
		c0.21-0.6,0.4-1.15,0.57-1.64c0.17-0.5,0.39-1.03,0.64-1.6l11.06-24.31h3.36V531H230.76z"/>
	<path class="st1" d="M272.02,531l-3.56-9.55H254.6l-3.47,9.55h-3.33l12.3-32.3h3.02l12.23,32.3H272.02z M262.17,504.35
		c-0.1-0.29-0.21-0.62-0.33-0.99c-0.11-0.38-0.21-0.8-0.28-1.28h-0.09c-0.09,0.48-0.19,0.91-0.3,1.28
		c-0.11,0.38-0.22,0.71-0.33,0.99l-5.23,14.37h11.83L262.17,504.35z"/>
	<path class="st1" d="M295.36,501.45V531h-3v-29.55h-9.3v-2.75h21.63v2.75H295.36z"/>
	<path class="st1" d="M319,531v-32.3h15.75v2.75H322v11.85h11.8v2.7H322v12.28h13.47V531H319z"/>
	<path class="st1" d="M379.79,531v-22.3c0-1.14,0.09-2.98,0.27-5.52h-0.09c-0.21,0.68-0.4,1.26-0.57,1.76
		c-0.17,0.5-0.33,0.9-0.48,1.22L367.64,531h-1.28l-11.29-24.69c-0.33-0.75-0.67-1.81-1.01-3.18h-0.09c0.06,0.69,0.1,1.48,0.12,2.37
		s0.03,1.87,0.03,2.95V531h-2.93v-32.3h3.54l10.97,24.28c0.22,0.51,0.45,1.03,0.66,1.57c0.22,0.53,0.42,1.1,0.6,1.7h0.13
		c0.21-0.6,0.4-1.15,0.57-1.64c0.17-0.5,0.39-1.03,0.64-1.6l11.06-24.31h3.36V531H379.79z"/>
	<path class="st1" d="M421.04,531l-3.56-9.55h-13.85l-3.47,9.55h-3.33l12.3-32.3h3.02l12.23,32.3H421.04z M411.2,504.35
		c-0.11-0.29-0.21-0.62-0.33-0.99c-0.11-0.38-0.21-0.8-0.28-1.28h-0.09c-0.09,0.48-0.19,0.91-0.3,1.28
		c-0.11,0.38-0.22,0.71-0.33,0.99l-5.23,14.37h11.83L411.2,504.35z"/>
	<path class="st1" d="M444.39,501.45V531h-3v-29.55h-9.3v-2.75h21.63v2.75H444.39z"/>
	<path class="st1" d="M471.02,531h-3v-32.3h3V531z"/>
	<path class="st1" d="M510.13,529.81c-2.49,1.17-5.34,1.76-8.54,1.76c-2.28,0-4.36-0.4-6.22-1.21c-1.86-0.8-3.45-1.92-4.76-3.35
		c-1.31-1.43-2.33-3.12-3.04-5.09c-0.71-1.97-1.07-4.11-1.07-6.44c0-2.45,0.38-4.73,1.14-6.84c0.76-2.11,1.84-3.94,3.25-5.5
		c1.41-1.55,3.12-2.77,5.13-3.66c2-0.89,4.25-1.33,6.75-1.33c2.75,0,5.2,0.42,7.37,1.26v3.2c-2.31-1.16-4.78-1.73-7.41-1.73
		c-2.09,0-3.94,0.36-5.56,1.08c-1.62,0.72-2.99,1.72-4.1,3.01s-1.96,2.8-2.54,4.55c-0.59,1.75-0.88,3.66-0.88,5.73
		c0,1.86,0.26,3.62,0.79,5.26c0.53,1.64,1.3,3.08,2.33,4.31c1.03,1.23,2.31,2.21,3.84,2.93c1.53,0.72,3.31,1.08,5.34,1.08
		c3.11,0,5.84-0.65,8.2-1.96V529.81z"/>
	<path class="st1" d="M546.95,531l-3.56-9.55h-13.85l-3.47,9.55h-3.33l12.3-32.3h3.02l12.23,32.3H546.95z M537.11,504.35
		c-0.11-0.29-0.21-0.62-0.33-0.99c-0.11-0.38-0.21-0.8-0.28-1.28h-0.09c-0.09,0.48-0.19,0.91-0.3,1.28
		c-0.11,0.38-0.22,0.71-0.33,0.99l-5.23,14.37h11.83L537.11,504.35z"/>
</g>
<g>
	
		<linearGradient id="SVGID_1_" gradientUnits="userSpaceOnUse" x1="135.5267" y1="307.9413" x2="497.9133" y2="307.9413" gradientTransform="matrix(1 0 0 -1 0 595.8898)">
		<stop  offset="0" style="stop-color:#006684"/>
		<stop  offset="0.0985" style="stop-color:#006784"/>
		<stop  offset="0.244" style="stop-color:#006A80"/>
		<stop  offset="0.4186" style="stop-color:#006C77"/>
		<stop  offset="0.6158" style="stop-color:#006E67"/>
		<stop  offset="0.8291" style="stop-color:#1C6E4D"/>
		<stop  offset="1" style="stop-color:#396C37"/>
	</linearGradient>
	<polyline class="st2" points="493.1,367.13 493.1,397.97 378.02,416.02 378.02,159.92 140.34,199.03 140.34,259.95 	"/>
	
		<linearGradient id="SVGID_2_" gradientUnits="userSpaceOnUse" x1="116.4268" y1="331.4591" x2="477.6033" y2="331.4591" gradientTransform="matrix(1 0 0 -1 0 595.8898)">
		<stop  offset="0" style="stop-color:#006684"/>
		<stop  offset="0.0985" style="stop-color:#006784"/>
		<stop  offset="0.244" style="stop-color:#006A80"/>
		<stop  offset="0.4186" style="stop-color:#006C77"/>
		<stop  offset="0.6158" style="stop-color:#006E67"/>
		<stop  offset="0.8291" style="stop-color:#1C6E4D"/>
		<stop  offset="1" style="stop-color:#396C37"/>
	</linearGradient>
	<polyline class="st3" points="472.79,350.99 472.79,381.82 396.83,393.86 396.83,135.1 121.24,183.63 121.24,249.82 	"/>
	
		<linearGradient id="SVGID_3_" gradientUnits="userSpaceOnUse" x1="97.3568" y1="352.3279" x2="457.3733" y2="352.3279" gradientTransform="matrix(1 0 0 -1 0 595.8898)">
		<stop  offset="0" style="stop-color:#006684"/>
		<stop  offset="0.0985" style="stop-color:#006784"/>
		<stop  offset="0.244" style="stop-color:#006A80"/>
		<stop  offset="0.4186" style="stop-color:#006C77"/>
		<stop  offset="0.6158" style="stop-color:#006E67"/>
		<stop  offset="0.8291" style="stop-color:#1C6E4D"/>
		<stop  offset="1" style="stop-color:#396C37"/>
	</linearGradient>
	<polyline class="st4" points="452.56,334.09 452.56,365.81 415.71,371.67 415.71,115.56 102.17,171.36 102.17,237.55 	"/>
	
		<linearGradient id="SVGID_4_" gradientUnits="userSpaceOnUse" x1="162.6459" y1="278.5297" x2="195.3932" y2="278.5297" gradientTransform="matrix(1 0 0 -1 0 595.8898)">
		<stop  offset="0" style="stop-color:#006562"/>
		<stop  offset="1" style="stop-color:#396C37"/>
	</linearGradient>
	<polyline class="st5" points="190.58,205.71 190.58,404.28 165.76,425.34 	"/>
	
		<linearGradient id="SVGID_5_" gradientUnits="userSpaceOnUse" x1="182.1559" y1="277.2206" x2="214.9133" y2="277.2206" gradientTransform="matrix(1 0 0 -1 0 595.8898)">
		<stop  offset="0" style="stop-color:#006562"/>
		<stop  offset="1" style="stop-color:#396C37"/>
	</linearGradient>
	<polyline class="st6" points="209.15,201.95 210.09,410.68 185.27,431.74 	"/>
	
		<linearGradient id="SVGID_6_" gradientUnits="userSpaceOnUse" x1="205.7586" y1="276.7993" x2="234.4727" y2="276.7993" gradientTransform="matrix(1 0 0 -1 0 595.8898)">
		<stop  offset="0" style="stop-color:#006562"/>
		<stop  offset="1" style="stop-color:#396C37"/>
	</linearGradient>
	<polyline class="st7" points="227.69,199.89 229.64,416.32 208.96,434.74 	"/>
</g>
</svg>
