<?xml version="1.0" encoding="UTF-8" standalone="no"?>
<!-- Generator: Adobe Illustrator 24.1.2, SVG Export Plug-In . SVG Version: 6.00 Build 0)  -->

<svg
   xmlns:dc="http://purl.org/dc/elements/1.1/"
   xmlns:cc="http://creativecommons.org/ns#"
   xmlns:rdf="http://www.w3.org/1999/02/22-rdf-syntax-ns#"
   xmlns:svg="http://www.w3.org/2000/svg"
   xmlns="http://www.w3.org/2000/svg"
   xmlns:sodipodi="http://sodipodi.sourceforge.net/DTD/sodipodi-0.dtd"
   xmlns:inkscape="http://www.inkscape.org/namespaces/inkscape"
   version="1.1"
   id="Livello_1"
   x="0px"
   y="0px"
   viewBox="0 0 595.28 595.28"
   style="enable-background:new 0 0 595.28 595.28;"
   xml:space="preserve"
   sodipodi:docname="A-musicale.svg"
   inkscape:version="0.92.4 (5da689c313, 2019-01-14)"><metadata
   id="metadata33"><rdf:RDF><cc:Work
       rdf:about=""><dc:format>image/svg+xml</dc:format><dc:type
         rdf:resource="http://purl.org/dc/dcmitype/StillImage" /></cc:Work></rdf:RDF></metadata><defs
   id="defs31" /><sodipodi:namedview
   pagecolor="#ffffff"
   bordercolor="#666666"
   borderopacity="1"
   objecttolerance="10"
   gridtolerance="10"
   guidetolerance="10"
   inkscape:pageopacity="0"
   inkscape:pageshadow="2"
   inkscape:window-width="1366"
   inkscape:window-height="705"
   id="namedview29"
   showgrid="false"
   inkscape:zoom="1"
   inkscape:cx="297.64001"
   inkscape:cy="217.64001"
   inkscape:window-x="-8"
   inkscape:window-y="-8"
   inkscape:window-maximized="1"
   inkscape:current-layer="Livello_1" />
<style
   type="text/css"
   id="style2">
	.st0{fill:#E30613;}
	.st1{font-family:'SegoeUI-Semilight';}
	.st2{font-size:48.9322px;}
	.st3{letter-spacing:9;}
	.st4{fill:#2F53A1;}
	.st5{fill:#282E68;}
	.st6{fill:#E9521E;}
	.st7{fill:#D43116;}
	.st8{fill:none;stroke:#282E68;stroke-width:6.225;stroke-miterlimit:10;}
	.st9{fill:#2A6CB4;}
</style>
<text
   class="st0 st1 st2 st3"
   id="text4"
   x="52.130997"
   y="531"
   style="font-size:48.93220139px;font-family:SegoeUI-Semilight;letter-spacing:9;fill:#e30613"><tspan
     style="font-style:normal;font-variant:normal;font-weight:bold;font-stretch:normal;font-size:48.93200302px;font-family:'Century Gothic';-inkscape-font-specification:'Century Gothic, Bold';font-variant-ligatures:normal;font-variant-caps:normal;font-variant-numeric:normal;font-feature-settings:normal;text-align:start;writing-mode:lr-tb;text-anchor:start"
     id="tspan4775">AREA MUSICALE</tspan></text>

<g
   id="g26">
	<g
   id="g8">
		<path
   class="st4"
   d="M368.93,159.5c14.94,11.6,27.05,26.99,34.56,44.51c7.53,17.5,10.5,36.96,8.65,56.02    c-1.92,19.05-8.73,37.66-19.77,53.41c-10.92,15.84-26.03,28.76-43.31,37.37c-8.68,4.24-17.88,7.46-27.35,9.42    c-9.49,1.9-19.21,2.67-28.89,2.21c-9.67-0.52-19.31-2.16-28.58-5.05c-2.3-0.78-4.63-1.47-6.87-2.4c-1.13-0.44-2.27-0.86-3.39-1.33    l-3.33-1.48c-0.55-0.25-1.11-0.49-1.66-0.75l-1.63-0.82l-3.25-1.65l-3.17-1.8l-1.58-0.9l-1.54-0.97l-3.08-1.95l-2.99-2.09    c-2.02-1.36-3.88-2.92-5.82-4.39c-3.73-3.12-7.39-6.34-10.71-9.9c-6.77-6.99-12.55-14.93-17.36-23.4    c-4.79-8.49-8.42-17.63-10.97-27.05c-1.16-4.74-2.22-9.52-2.79-14.37c-0.52-4.82-1.63-9.76,0.7-14.6h6.22    c1.31,2.27,1.63,4.49,1.91,6.72c0.11,1.12,0.17,2.24,0.25,3.35c0.05,1.12,0.25,2.23,0.36,3.34c0.47,4.46,1.4,8.86,2.4,13.23    c2.25,8.68,5.48,17.13,9.81,25c4.34,7.86,9.59,15.26,15.78,21.79c3.03,3.33,6.39,6.35,9.8,9.28c1.78,1.38,3.48,2.86,5.34,4.13    l2.75,1.97l2.83,1.84l1.42,0.92l1.46,0.85l2.92,1.7l3,1.56l1.5,0.78c0.51,0.25,1.02,0.47,1.53,0.71l3.07,1.41    c1.04,0.45,2.09,0.85,3.13,1.27c2.07,0.89,4.23,1.55,6.36,2.31c8.59,2.78,17.54,4.42,26.56,5.01c9.03,0.53,18.13-0.08,27.03-1.75    c8.89-1.7,17.57-4.55,25.79-8.39c16.37-7.81,30.87-19.74,41.48-34.58c10.73-14.76,17.53-32.34,19.69-50.52    c2.18-18.19-0.22-36.97-7.12-54.07c-3.41-8.56-8.03-16.63-13.51-24.07c-5.48-7.44-11.9-14.21-19.06-20.1L368.93,159.5z"
   id="path6" />
	</g>
	<g
   id="g12">
		<path
   class="st5"
   d="M204.54,144.25c11.72-10.77,25.27-19.55,39.92-25.8c14.65-6.24,30.37-10.05,46.29-10.96    c31.82-2.06,64.34,7.09,90.27,25.81c26.07,18.48,45.51,46.16,53.96,77.06c2.12,7.72,3.58,15.61,4.39,23.57    c0.82,7.97,0.84,16,0.31,23.98c-1.04,15.99-5,31.77-11.41,46.46c-6.36,14.72-15.42,28.25-26.37,39.97    c-5.49,5.85-11.44,11.28-17.85,16.11c-6.41,4.83-13.23,9.12-20.36,12.82c-28.49,14.96-62.21,19.33-93.72,12.86    c-15.76-3.26-30.94-9.29-44.72-17.61c-13.76-8.38-26.05-19.14-36.28-31.59c-10.24-12.46-18.22-26.74-23.7-41.92    c-5.5-15.18-8.14-31.35-8.29-47.48h6.22c0.06,15.44,2.49,30.91,7.69,45.48c5.17,14.56,12.74,28.3,22.5,40.31    c9.75,12.01,21.5,22.41,34.69,30.55c13.21,8.08,27.78,13.95,42.94,17.18c30.32,6.39,62.91,2.38,90.53-11.94    c6.91-3.53,13.53-7.65,19.76-12.29c6.23-4.64,12.02-9.87,17.37-15.51c10.67-11.29,19.53-24.36,25.78-38.62    c6.29-14.22,10.23-29.52,11.32-45.07c0.56-7.76,0.58-15.59-0.17-23.34c-0.75-7.76-2.13-15.45-4.15-22.98    c-8.06-30.14-26.87-57.28-52.27-75.49c-25.26-18.45-57.05-27.6-88.31-25.75c-15.64,0.8-31.1,4.46-45.54,10.52    c-14.44,6.07-27.83,14.63-39.43,25.18L204.54,144.25z"
   id="path10" />
	</g>
	<g
   id="g16">
		<path
   class="st6"
   d="M138.82,198.75c11.05-40.38,38.48-76.33,74.96-97.94c9.1-5.41,18.71-9.99,28.67-13.64    c9.96-3.66,20.31-6.27,30.8-7.91c10.49-1.64,21.14-2.36,31.76-2.02c10.62,0.29,21.23,1.61,31.61,3.94    c20.78,4.61,40.65,13.21,58.29,25.13c17.67,11.9,32.96,27.22,45.13,44.7c6.07,8.76,11.32,18.08,15.7,27.81    c4.39,9.73,7.79,19.89,10.34,30.27l0.96,3.89l0.77,3.94l0.76,3.94c0.25,1.31,0.39,2.64,0.59,3.97c0.38,2.65,0.85,5.29,1.05,7.96    l0.4,4l0.19,2l0.1,2.01c0.68,10.69,0.54,21.49-0.76,32.21c-2.52,21.41-9.09,42.56-19.83,61.51    c-10.63,19.01-25.29,35.65-42.29,49.17c-8.5,6.77-17.69,12.67-27.33,17.68c-9.64,5-19.73,9.13-30.13,12.18    c-10.4,3.07-21.08,5.11-31.84,6.16c-10.76,1.01-21.58,1.02-32.31,0.07c-21.46-1.92-42.49-7.91-61.6-17.55    c-19.1-9.67-36.34-22.84-50.55-38.66c-7.13-7.89-13.52-16.43-19.05-25.48c-1.45-2.22-2.69-4.57-3.99-6.88    c-1.34-2.29-2.49-4.68-3.66-7.05c-0.57-1.19-1.21-2.36-1.75-3.57l-1.61-3.63c-0.53-1.21-1.09-2.41-1.59-3.64l-1.43-3.71    c-3.79-9.88-6.64-20.11-8.62-30.5c-1.94-10.4-2.98-20.96-3.13-31.54h5.77c-0.11,10.23,0.8,20.48,2.72,30.53    c1.87,10.06,4.8,19.92,8.63,29.4l1.43,3.56c0.51,1.17,1.06,2.32,1.59,3.49l1.61,3.48c0.54,1.16,1.17,2.27,1.75,3.41    c1.19,2.26,2.36,4.53,3.71,6.7c1.31,2.19,2.56,4.42,4.02,6.52c5.56,8.56,11.9,16.59,18.94,23.95    c14.1,14.69,30.91,26.7,49.31,35.11c18.4,8.43,38.31,13.26,58.37,14.32c10.03,0.54,20.09,0.17,30.02-1.11    c9.92-1.26,19.72-3.42,29.21-6.53c9.47-3.12,18.68-7.04,27.41-11.81c8.74-4.76,17.01-10.36,24.74-16.6    c15.49-12.5,28.41-27.97,38.55-45.03c10.07-17.1,17.41-35.95,21-55.71c1.81-9.87,2.68-19.96,2.53-30.05l0-1.89l-0.1-1.89    l-0.19-3.78c-0.07-2.53-0.39-5.04-0.64-7.55c-0.15-1.25-0.25-2.52-0.45-3.77l-0.61-3.74l-0.61-3.75l-0.8-3.71    c-4.28-19.79-12.42-38.78-23.84-55.59c-11.37-16.84-26.05-31.45-42.86-42.9c-16.8-11.46-35.79-19.7-55.64-24.16    c-19.84-4.41-40.53-5.34-60.7-2.36c-2.53,0.3-5.02,0.85-7.53,1.28c-2.51,0.46-4.98,1.09-7.47,1.62c-2.46,0.66-4.94,1.28-7.38,2    l-3.65,1.14l-1.83,0.56l-1.81,0.63c-9.65,3.3-19.01,7.49-27.92,12.52c-8.88,5.07-17.3,10.97-25.13,17.58    c-7.87,6.57-15.09,13.93-21.62,21.87c-13.09,15.87-23.15,34.25-29.78,53.89L138.82,198.75z"
   id="path14" />
	</g>
	<g
   id="g20">
		<path
   class="st7"
   d="M432.95,100.25c12.17,11.11,23.01,23.68,32.21,37.36c0.6,0.84,1.15,1.71,1.69,2.59l1.63,2.63    c1.07,1.76,2.21,3.48,3.23,5.27l2.99,5.41l1.49,2.71l1.36,2.78l2.71,5.56c0.91,1.85,1.64,3.78,2.47,5.67    c0.78,1.91,1.66,3.78,2.37,5.71l2.11,5.81l1.06,2.91l0.91,2.96l1.81,5.92c0.32,0.98,0.57,1.98,0.81,2.99l0.75,3    c0.48,2.01,1.03,4,1.46,6.01c1.64,8.09,3.03,16.24,3.68,24.47l0.51,6.17c0.11,2.06,0.14,4.12,0.21,6.19    c0.04,2.06,0.17,4.13,0.13,6.19l-0.14,6.19l-0.07,3.1l-0.23,3.09l-0.45,6.18c-0.17,2.06-0.49,4.1-0.72,6.15l-0.38,3.07l-0.19,1.54    l-0.27,1.53c-0.75,4.06-1.33,8.16-2.34,12.17l-1.39,6.04l-1.68,5.97l-0.84,2.98c-0.3,0.99-0.65,1.96-0.97,2.94l-1.97,5.88    c-0.68,1.95-1.48,3.86-2.22,5.79c-0.77,1.92-1.45,3.87-2.34,5.74c-1.7,3.77-3.33,7.57-5.28,11.22c-0.96,1.83-1.83,3.71-2.86,5.5    L471.1,349c-0.99,1.82-2.12,3.55-3.23,5.29c-1.12,1.74-2.21,3.5-3.35,5.22l-3.58,5.06l-1.79,2.53l-1.91,2.44l-3.82,4.89    l-4.04,4.71l-2.03,2.35c-0.68,0.78-1.41,1.51-2.12,2.27l-4.27,4.5c-5.88,5.81-11.95,11.46-18.51,16.51    c-6.44,5.2-13.34,9.8-20.37,14.17l-5.37,3.11c-0.9,0.51-1.78,1.06-2.7,1.53l-2.76,1.42l-5.52,2.84l-5.65,2.57    c-15.09,6.85-31.11,11.54-47.43,14.39c-16.32,2.89-33.01,3.51-49.54,2.27c-4.14-0.22-8.25-0.81-12.36-1.31    c-2.06-0.21-4.1-0.62-6.14-0.97c-2.04-0.37-4.09-0.7-6.12-1.09l-6.06-1.38l-3.03-0.69c-1.01-0.25-2-0.55-3-0.83l-5.99-1.69    c-1.99-0.58-3.94-1.3-5.91-1.94c-3.96-1.24-7.8-2.83-11.66-4.33c-1.95-0.71-3.81-1.64-5.71-2.47c-1.88-0.87-3.8-1.66-5.66-2.59    l-5.55-2.82c-0.92-0.48-1.86-0.92-2.76-1.44l-2.7-1.54l-5.4-3.1l-5.25-3.35l-2.62-1.67l-2.55-1.79l-5.08-3.6    c-1.66-1.24-3.28-2.55-4.92-3.82c-1.64-1.28-3.29-2.54-4.83-3.92l-4.72-4.07c-1.57-1.36-3.03-2.84-4.55-4.25    c-3.07-2.8-5.89-5.85-8.77-8.85l-1.08-1.12l-1.02-1.17l-2.05-2.35c-1.34-1.58-2.77-3.1-4.04-4.74c-2.55-3.27-5.22-6.46-7.57-9.9    c-1.2-1.7-2.44-3.36-3.6-5.09l-3.38-5.24c-0.56-0.88-1.14-1.74-1.67-2.63l-1.56-2.7l-3.12-5.4c-7.88-14.63-14.09-30.19-18.22-46.3    c-4.05-16.13-6.15-32.75-6.26-49.39l-0.02-3.11h3.13h114.43h2.83l0.28,3.11c1.53,16.8,7.8,32.59,17.86,45.24    c9.97,12.7,23.71,22.1,38.81,26.85c7.55,2.39,15.46,3.59,23.38,3.64c3.96,0,7.92-0.26,11.85-0.81c3.91-0.61,7.78-1.5,11.56-2.67    l2.82-0.94l2.77-1.07c0.93-0.34,1.83-0.77,2.74-1.16l1.36-0.59l1.33-0.66c1.8-0.84,3.52-1.83,5.25-2.8c1.69-1.05,3.39-2.08,5-3.25    c6.52-4.57,12.35-10.14,17.24-16.47c2.47-3.15,4.61-6.56,6.54-10.07c1-1.74,1.85-3.56,2.72-5.37c0.79-1.85,1.6-3.69,2.26-5.6    c2.75-7.57,4.27-15.61,4.62-23.76c0.12-4.07-0.01-8.16-0.48-12.22c-0.51-4.06-1.3-8.08-2.4-12.04    c-2.27-7.89-5.71-15.51-10.38-22.38c-4.6-6.91-10.36-13.09-16.94-18.27c-3.29-2.59-6.82-4.89-10.48-6.94    c-3.66-2.07-7.51-3.81-11.48-5.25c-15.86-5.83-33.65-6.58-50.38-2.26l-0.48-1.53c16.56-6.13,35.33-6.47,52.52-1.19    c4.3,1.31,8.52,2.96,12.56,4.97c4.05,2,7.97,4.28,11.67,6.89c7.38,5.25,14.07,11.57,19.57,18.88c5.56,7.26,9.9,15.48,12.97,24.18    c1.49,4.36,2.66,8.85,3.5,13.4c0.8,4.56,1.23,9.19,1.36,13.84c0.47,18.59-5.26,37.5-16.22,52.87c-2.74,3.84-5.77,7.48-9.06,10.88    c-3.3,3.4-6.92,6.46-10.72,9.29c-1.89,1.43-3.88,2.72-5.87,4.01c-2.04,1.21-4.07,2.44-6.2,3.51c-4.22,2.18-8.6,4.07-13.14,5.51    c-4.53,1.45-9.17,2.57-13.86,3.34c-4.71,0.71-9.46,1.08-14.21,1.11c-4.75-0.04-9.5-0.45-14.21-1.18    c-4.7-0.74-9.32-1.98-13.83-3.47c-18.04-6.09-33.89-18.19-44.29-33.82c-2.62-3.89-4.91-7.99-6.82-12.24    c-1.92-4.25-3.53-8.62-4.69-13.11c-1.16-4.48-1.98-9.03-2.38-13.61c-0.39-4.57-0.38-9.15-0.01-13.67l3.11,3.11l-114.43,0    l3.11-3.11c0.03,16.13,1.98,32.25,5.83,47.92c3.93,15.65,9.88,30.78,17.46,45.03l3.01,5.26l1.5,2.63    c0.52,0.87,1.08,1.71,1.62,2.56l3.26,5.11c1.12,1.68,2.32,3.31,3.47,4.96c2.26,3.35,4.84,6.46,7.31,9.66    c1.23,1.6,2.61,3.08,3.91,4.63l1.98,2.3l0.99,1.15l1.04,1.1c2.79,2.92,5.51,5.91,8.49,8.65c1.47,1.38,2.88,2.83,4.41,4.16    l4.57,3.98c1.5,1.36,3.1,2.59,4.69,3.84c1.59,1.24,3.16,2.52,4.77,3.74l4.93,3.53l2.47,1.76l2.55,1.64l5.1,3.29l5.24,3.04    l2.62,1.52c0.87,0.51,1.79,0.94,2.68,1.41l5.39,2.78c1.8,0.92,3.67,1.7,5.5,2.55c1.85,0.82,3.66,1.73,5.55,2.43    c3.76,1.48,7.49,3.05,11.35,4.28c1.92,0.64,3.81,1.35,5.75,1.92l5.83,1.67c0.97,0.27,1.94,0.57,2.92,0.82l2.95,0.69l5.91,1.38    c1.98,0.39,3.98,0.73,5.97,1.1c1.99,0.35,3.97,0.77,5.99,0.98c4.01,0.51,8.02,1.11,12.06,1.34c16.13,1.29,32.45,0.77,48.41-1.98    c15.96-2.7,31.66-7.21,46.45-13.84l5.54-2.49l5.42-2.75l2.71-1.38c0.9-0.46,1.77-0.99,2.65-1.49l5.28-3.02    c6.9-4.25,13.68-8.72,20.02-13.78c6.45-4.92,12.43-10.43,18.23-16.09l4.21-4.39c0.69-0.74,1.42-1.45,2.09-2.21l2-2.29l3.99-4.6    l3.77-4.78l1.89-2.39l1.77-2.47l3.54-4.95c1.13-1.69,2.21-3.41,3.31-5.11c1.1-1.7,2.22-3.4,3.2-5.18l3.05-5.27    c1.02-1.76,1.88-3.59,2.83-5.39c1.94-3.57,3.55-7.3,5.24-10.99c0.88-1.83,1.56-3.75,2.33-5.62c0.73-1.89,1.54-3.76,2.21-5.67    l1.97-5.76c0.32-0.96,0.67-1.92,0.97-2.89l0.84-2.93l1.68-5.86l1.39-5.93c1.02-3.94,1.61-7.96,2.36-11.95l0.27-1.5l0.2-1.51    l0.39-3.02c0.24-2.02,0.56-4.02,0.74-6.05l0.48-6.08l0.24-3.04l0.09-3.05l0.17-6.09c0.06-2.03-0.07-4.06-0.1-6.09    c-0.06-2.03-0.07-4.06-0.17-6.09l-0.48-6.08c-0.6-8.11-1.93-16.14-3.5-24.12c-0.42-1.99-0.94-3.95-1.41-5.93l-0.72-2.96    c-0.23-0.99-0.47-1.98-0.78-2.95l-1.75-5.84l-0.88-2.92l-1.03-2.87l-2.06-5.74c-0.69-1.91-1.54-3.76-2.31-5.65    c-0.81-1.87-1.52-3.78-2.41-5.61l-2.64-5.5l-1.33-2.75l-1.46-2.68l-2.92-5.36c-0.99-1.78-2.11-3.48-3.16-5.22l-1.6-2.6    c-0.53-0.87-1.06-1.74-1.65-2.56c-9.01-13.56-19.65-26.03-31.63-37.07L432.95,100.25z"
   id="path18" />
	</g>
	<line
   class="st8"
   x1="98.29"
   y1="236.98"
   x2="219.07"
   y2="236.98"
   id="line22" />
	<path
   class="st9"
   d="M319.4,250.86c-1.4-3.3-3.98-6.06-7.19-7.51c-3.1-1.44-6.61-1.57-9.53-0.76c-1.71,0.46-3.19,1.2-4.49,2.08   c-0.13-0.78-0.27-1.55-0.4-2.34c-0.25-1.49-0.47-3.02-0.68-4.55c1.39-1.33,2.73-2.75,3.9-4.31c2.93-3.62,5.06-8.05,5.56-12.76   c1.42-14.08-3.08-20.84-6.73-20.49c-7.98,1.21-6.92,14.84-5.35,28.96c-1.08,1.33-2.2,2.62-3.43,3.83l-2.23,2.2   c-0.74,0.71-1.51,1.54-2.31,2.44c-3.09,3.4-5.63,7.35-7.12,11.87c-1.55,4.47-1.46,9.81,0.83,14.03c2.22,4.25,6.02,7.12,9.99,8.7   c3.89,1.48,7.9,2.04,11.76,1.78c0.38,2.02,0.73,3.98,1.01,5.82c1.21,4.89-0.52,9.29-3.57,10.81c-2.28,1.04-4.43,0.48-5.86-0.45   c0.16,0.02,0.31,0.06,0.48,0.06c2.28,0.07,4.18-1.73,4.24-4c0.06-2.28-1.74-4.16-4.01-4.23c-2.27-0.06-4.17,1.73-4.22,4.01   c0,0.19,0.02,0.36,0.04,0.54h-0.01c0-0.01,0.01,0.01,0.02,0.05c0.11,0.9,0.49,1.73,1.08,2.36c0.11,0.16,0.22,0.31,0.36,0.48   c0.67,0.8,1.7,1.66,3.13,2.21c1.44,0.52,3.26,0.74,5.22,0.11c1.95-0.6,3.81-2.33,4.67-4.63c0.45-1.13,0.75-2.4,0.72-3.7   c-0.04-1.4-0.22-2.58-0.4-3.9c-0.29-1.83-0.63-3.76-1-5.73c3.43-0.47,6.71-1.6,9.62-3.31c3.24-2.07,5.77-5.26,6.71-8.91   C321.25,258,320.83,254.15,319.4,250.86z M301.64,205.43c1.6,0.51,1.81,2.7,1.79,4.1c-0.06,3.31-0.87,6.64-2.46,9.55   c-1.54,2.8-3.14,5.44-4.92,8C295.17,212.96,298.41,204.4,301.64,205.43z M291.65,269.13c-3.23-1.7-6.03-4.3-7.33-7.52   c-1.32-3.2-1.04-6.8,0.45-10.09c1.5-3.27,4.06-6.26,6.84-8.9c0.66-0.62,1.38-1.27,2.23-1.97l1.15-0.97   c0.28-0.23,0.56-0.46,0.84-0.7c0.18,1.2,0.36,2.4,0.53,3.58c0.16,1.06,0.34,2.08,0.51,3.12c-2.44,2.12-3.94,4.84-4.54,7.24   c-0.99,4.07-0.1,7.22,0.66,9.11c0.39,0.95,0.75,1.63,1.04,2.08c0.27,0.45,0.42,0.67,0.42,0.67s-0.27-1.05-0.49-3.01   c-0.16-1.92-0.2-4.83,1.21-7.87c0.54-1.24,1.4-2.47,2.5-3.57c0.75,4.35,1.51,8.52,2.24,12.47c0.54,3.07,1.12,6,1.65,8.78   C298.11,271.54,294.66,270.74,291.65,269.13z M317.94,261.12c-0.44,3.1-2.47,6.06-5.45,7.78c-2.63,1.55-5.78,2.44-9.03,2.66   c-0.56-2.89-1.19-5.92-1.85-9.08c-0.88-4.19-1.77-8.65-2.62-13.3c1.34-1.01,2.93-1.8,4.76-2.17c4.18-0.85,9.21,0.87,12.23,5.63   C317.5,254.97,318.37,258,317.94,261.12z"
   id="path24" />
</g>
</svg>