<?xml version="1.0" encoding="UTF-8" standalone="no"?>
<!-- Generator: Adobe Illustrator 24.1.2, SVG Export Plug-In . SVG Version: 6.00 Build 0)  -->

<svg
   xmlns:dc="http://purl.org/dc/elements/1.1/"
   xmlns:cc="http://creativecommons.org/ns#"
   xmlns:rdf="http://www.w3.org/1999/02/22-rdf-syntax-ns#"
   xmlns:svg="http://www.w3.org/2000/svg"
   xmlns="http://www.w3.org/2000/svg"
   xmlns:sodipodi="http://sodipodi.sourceforge.net/DTD/sodipodi-0.dtd"
   xmlns:inkscape="http://www.inkscape.org/namespaces/inkscape"
   version="1.1"
   id="Livello_1"
   x="0px"
   y="0px"
   viewBox="0 0 595.28 595.28"
   style="enable-background:new 0 0 595.28 595.28;"
   xml:space="preserve"
   sodipodi:docname="A-tech.svg"
   inkscape:version="0.92.4 (5da689c313, 2019-01-14)"><metadata
   id="metadata40"><rdf:RDF><cc:Work
       rdf:about=""><dc:format>image/svg+xml</dc:format><dc:type
         rdf:resource="http://purl.org/dc/dcmitype/StillImage" /></cc:Work></rdf:RDF></metadata><defs
   id="defs38" /><sodipodi:namedview
   pagecolor="#ffffff"
   bordercolor="#666666"
   borderopacity="1"
   objecttolerance="10"
   gridtolerance="10"
   guidetolerance="10"
   inkscape:pageopacity="0"
   inkscape:pageshadow="2"
   inkscape:window-width="1366"
   inkscape:window-height="705"
   id="namedview36"
   showgrid="false"
   inkscape:zoom="1"
   inkscape:cx="251.41511"
   inkscape:cy="137.64001"
   inkscape:window-x="-8"
   inkscape:window-y="-8"
   inkscape:window-maximized="1"
   inkscape:current-layer="Livello_1" />
<style
   type="text/css"
   id="style2">
	.st0{fill:#2C4A9A;}
	.st1{font-family:'SegoeUI-Semilight';}
	.st2{font-size:51.1762px;}
	.st3{letter-spacing:10;}
	.st4{fill:#944895;}
	.st5{fill:url(#SVGID_1_);}
	.st6{fill:url(#SVGID_2_);}
	.st7{fill:url(#SVGID_3_);}
</style>
<text
   class="st0 st1 st2 st3"
   id="text4"
   x="175.53819"
   y="528.98633"
   style="font-style:normal;font-variant:normal;font-weight:bold;font-stretch:normal;font-size:28.69466591px;font-family:Arial;-inkscape-font-specification:'Arial, Bold';font-variant-ligatures:normal;font-variant-caps:normal;font-variant-numeric:normal;font-feature-settings:normal;text-align:start;letter-spacing:10;writing-mode:lr-tb;text-anchor:start;fill:#2c4a9a"><tspan
     style="font-style:normal;font-variant:normal;font-weight:bold;font-stretch:normal;font-size:28.69466591px;font-family:Arial;-inkscape-font-specification:'Arial, Bold';font-variant-ligatures:normal;font-variant-caps:normal;font-variant-numeric:normal;font-feature-settings:normal;text-align:start;writing-mode:lr-tb;text-anchor:start"
     id="tspan4779">AREA TECH</tspan></text>


<g
   id="g33">
	<polygon
   class="st4"
   points="423.58,379.07 423.58,200.36 410.89,204.7 410.89,371.35 293.05,432.34 293.05,446.63  "
   id="polygon6" />
	<path
   class="st4"
   d="M371.69,216.67c-1.07-7.88-8.33-13.39-16.2-12.32c-7.87,1.07-13.39,8.33-12.32,16.2   c0.67,4.93,3.76,8.93,7.91,10.97l-0.28,111.42l-57.75,27.3v14.04l70.42-33.29l0.3-119.53   C369.17,228.79,372.55,222.96,371.69,216.67z"
   id="path8" />
	<path
   class="st4"
   d="M484.27,197.16c-1.48-2.57-3.64-4.5-6.12-5.72V97.96l-185.1,60.95v13.36l172.41-56.77v76.01   c-0.28,0.14-0.58,0.22-0.85,0.38c-6.88,3.97-9.24,12.78-5.27,19.66c3.97,6.88,12.78,9.24,19.66,5.27   C485.89,212.84,488.25,204.04,484.27,197.16z"
   id="path10" />
	<linearGradient
   id="SVGID_1_"
   gradientUnits="userSpaceOnUse"
   x1="251.0253"
   y1="256.6154"
   x2="95.5235"
   y2="199.9221">
		<stop
   offset="0"
   style="stop-color:#4E1E40"
   id="stop12" />
		<stop
   offset="1"
   style="stop-color:#7060A7"
   id="stop14" />
	</linearGradient>
	<polygon
   class="st5"
   points="291.06,159.57 109.07,97.88 109.07,208.65 222.39,253.97 222.23,351.17 292.23,384.67 293.05,384.28    293.05,370.24 292.26,370.61 234.93,343.19 235.09,245.39 121.76,200.06 121.76,115.58 291.01,172.95 293.05,172.27 293.05,158.91     "
   id="polygon17" />
	<linearGradient
   id="SVGID_2_"
   gradientUnits="userSpaceOnUse"
   x1="251.0253"
   y1="256.6154"
   x2="95.5235"
   y2="199.9221">
		<stop
   offset="0"
   style="stop-color:#4E1E40"
   id="stop19" />
		<stop
   offset="1"
   style="stop-color:#7060A7"
   id="stop21" />
	</linearGradient>
	<polygon
   class="st6"
   points="291.06,159.57 109.07,97.88 109.07,208.65 222.39,253.97 222.23,351.17 292.23,384.67 293.05,384.28    293.05,370.24 292.26,370.61 234.93,343.19 235.09,245.39 121.76,200.06 121.76,115.58 291.01,172.95 293.05,172.27 293.05,158.91     "
   id="polygon24" />
	<linearGradient
   id="SVGID_3_"
   gradientUnits="userSpaceOnUse"
   x1="1163.4102"
   y1="694.9686"
   x2="-1199.7134"
   y2="-166.5868">
		<stop
   offset="0"
   style="stop-color:#4E1E40"
   id="stop26" />
		<stop
   offset="1"
   style="stop-color:#7060A7"
   id="stop28" />
	</linearGradient>
	<path
   class="st7"
   d="M292.49,432.63l-117.28-59.69v-81.83c5.39-2.67,8.77-8.5,7.91-14.79c-1.07-7.88-8.33-13.39-16.2-12.32   c-7.87,1.07-13.39,8.33-12.32,16.2c0.67,4.93,3.76,8.93,7.91,10.97v89.54l130.01,66.17l0.51-0.26v-14.29L292.49,432.63z"
   id="path31" />
</g>
</svg>