<?xml version="1.0" encoding="utf-8"?>
<!-- Generator: Adobe Illustrator 24.1.2, SVG Export Plug-In . SVG Version: 6.00 Build 0)  -->
<svg version="1.1" id="Livello_1" xmlns="http://www.w3.org/2000/svg" xmlns:xlink="http://www.w3.org/1999/xlink" x="0px" y="0px"
	 viewBox="0 0 595.28 595.28" style="enable-background:new 0 0 595.28 595.28;" xml:space="preserve">
<style type="text/css">
	.st0{fill:url(#SVGID_1_);}
	.st1{fill:url(#SVGID_2_);}
	.st2{enable-background:new    ;}
	.st3{fill:#3C74BA;}
</style>
<g>
	<g>
		
			<linearGradient id="SVGID_1_" gradientUnits="userSpaceOnUse" x1="460.5001" y1="267.2219" x2="187.0533" y2="311.6473" gradientTransform="matrix(1 0 0 -1 0 595.8898)">
			<stop  offset="0" style="stop-color:#1A578E"/>
			<stop  offset="1" style="stop-color:#62AA4D"/>
		</linearGradient>
		<path class="st0" d="M508.35,173.24c-10.28-3.8-20.39-6.19-30.13-8.01l0,0c-0.04-0.01-0.08-0.01-0.12-0.02
			c-0.43-0.08-0.86-0.16-1.28-0.24h-0.06l-0.01,0.01c-15.98-2.79-30.85-4.03-44.62-4.03c-19.29,0-36.43,2.4-51.48,6.24
			c-56.99,15.71-86.98,52.65-86.98,52.65c-12.55-13.09-26-23.32-39.74-31.47c-39.35-22.41-83.07-27.23-113.02-27.23
			c-1.7,0-3.35,0.02-4.96,0.04c-11.48,0.54-21.95,1.73-31,3.15h-0.06c-20.64,3.33-33.73,7.91-33.73,7.91l132.19,270.34
			c8.03-5.47,15.71-7.85,22.37-8.75h0.06l10.65,23.86c7.2-1.31,13.66-1.85,19.44-1.85c27.55,0,39.34,12.32,39.34,12.32
			c9.53-9.53,27.6-11.34,40.01-11.34c7.67,0,13.18,0.69,13.18,0.69l10-22.49l0.59-1.43h0.06l0.02-0.05
			c16.54,3.3,23.81,9.54,23.81,9.54L508.35,173.24z M207.59,429.05L85.01,178.39c3.83-0.98,8.59-2.08,14.1-3.14L212.1,427.21
			C210.58,427.76,209.07,428.38,207.59,429.05z M255.87,446.11c-4.37,0-8.91,0.28-13.56,0.85l-7.63-17.08
			c-0.11-0.24-0.22-0.47-0.34-0.69L119.19,172.27c5.67-0.62,11.38-1.07,17.08-1.34c1.51-0.03,3.06-0.04,4.65-0.04l0,0
			c28.54,0,70.46,4.5,108.12,25.91c12.8,7.6,24.53,16.69,34.92,27.05l1.42,227.31C278.1,448.37,268.36,446.11,255.87,446.11z
			 M350,429.86l-0.55,1.32l-7.15,16.08c-2.05-0.1-4.45-0.18-7.07-0.18c-9.18,0-20.38,0.93-30.37,4.38l-1.42-227.94
			c7.67-8.19,35.05-34.59,79.71-46.92c15.41-3.92,31.89-5.91,48.98-5.91c10.36,0,21.07,0.73,31.99,2.18L350.09,429.65
			C350.06,429.72,350.03,429.79,350,429.86z M371.25,426.66l111.26-250.64c4.41,0.94,8.5,1.95,12.37,3.06L378.5,429.42
			C376.4,428.49,373.99,427.55,371.25,426.66z"/>
		
			<linearGradient id="SVGID_2_" gradientUnits="userSpaceOnUse" x1="490.8933" y1="454.2971" x2="217.4465" y2="498.7226" gradientTransform="matrix(1 0 0 -1 0 595.8898)">
			<stop  offset="0" style="stop-color:#1A578E"/>
			<stop  offset="1" style="stop-color:#62AA4D"/>
		</linearGradient>
		<path class="st1" d="M297.5,172.63c14.81,0,41.39-55.97,41.39-80.51S319,47.69,294.46,47.69c-24.54,0-44.43,19.89-44.43,44.43
			C250.03,116.66,279.65,172.63,297.5,172.63z M259.77,92.12c0-19.13,15.56-34.69,34.69-34.69s34.69,15.56,34.69,34.69
			c0,22.01-22.9,66.08-32,70.66c-3.03-0.98-11.85-8.46-22.14-27C266.03,119.65,259.77,101.69,259.77,92.12z"/>
	</g>
	<g class="st2">
		<path class="st3" d="M62.82,547.01l-3.67-9.85H44.85l-3.58,9.85h-3.44l12.69-33.33h3.11l12.62,33.33H62.82z M52.66,519.52
			c-0.11-0.29-0.22-0.63-0.34-1.02c-0.12-0.39-0.21-0.83-0.29-1.33h-0.09c-0.09,0.5-0.2,0.94-0.31,1.33
			c-0.12,0.39-0.23,0.73-0.34,1.02l-5.39,14.83h12.2L52.66,519.52z"/>
		<path class="st3" d="M98.65,547.01l-5.02-9.55c-0.5-0.94-0.98-1.73-1.44-2.37c-0.46-0.63-0.94-1.14-1.44-1.52
			c-0.5-0.38-1.03-0.65-1.59-0.81c-0.57-0.16-1.2-0.24-1.89-0.24H83.6v14.5H80.5v-33.33h9.6c1.25,0,2.47,0.19,3.64,0.56
			s2.21,0.92,3.13,1.65c0.91,0.73,1.65,1.64,2.2,2.74c0.55,1.1,0.82,2.38,0.82,3.83c0,1.18-0.18,2.26-0.53,3.25
			c-0.36,0.99-0.86,1.87-1.52,2.64c-0.66,0.77-1.46,1.42-2.39,1.95c-0.94,0.53-2,0.93-3.17,1.2v0.09c0.45,0.19,0.86,0.43,1.23,0.72
			c0.37,0.29,0.73,0.65,1.08,1.07s0.69,0.9,1.03,1.44c0.34,0.54,0.7,1.16,1.07,1.86l5.6,10.32H98.65z M83.6,516.52v13.18h5.53
			c1.12,0,2.14-0.16,3.07-0.49c0.93-0.33,1.72-0.79,2.38-1.39c0.66-0.6,1.17-1.33,1.53-2.18c0.36-0.85,0.55-1.81,0.55-2.88
			c0-1.94-0.62-3.46-1.87-4.57s-3.05-1.66-5.4-1.66H83.6z"/>
		<path class="st3" d="M116.95,547.01v-33.33h16.24v2.83h-13.15v12.22h12.18v2.79h-12.18v12.67h13.9v2.81H116.95z"/>
		<path class="st3" d="M171.7,547.01l-3.67-9.85h-14.29l-3.58,9.85h-3.44l12.69-33.33h3.11l12.62,33.33H171.7z M161.54,519.52
			c-0.11-0.29-0.22-0.63-0.34-1.02c-0.12-0.39-0.21-0.83-0.29-1.33h-0.09c-0.09,0.5-0.2,0.94-0.31,1.33
			c-0.12,0.39-0.23,0.73-0.34,1.02l-5.39,14.83h12.2L161.54,519.52z"/>
		<path class="st3" d="M234.96,533.62c0,9.31-4.09,13.97-12.27,13.97c-7.79,0-11.69-4.49-11.69-13.46v-20.45h3.09v20.17
			c0,3.66,0.74,6.39,2.21,8.2s3.75,2.72,6.83,2.72c5.83,0,8.74-3.53,8.74-10.6v-20.5h3.09V533.62z"/>
		<path class="st3" d="M281.67,547.01V524c0-1.18,0.09-3.08,0.28-5.69h-0.09c-0.22,0.7-0.41,1.3-0.59,1.81
			c-0.18,0.51-0.35,0.93-0.5,1.25l-11.62,25.63h-1.32l-11.64-25.47c-0.34-0.77-0.69-1.87-1.05-3.28h-0.09
			c0.06,0.71,0.1,1.53,0.13,2.44c0.02,0.91,0.04,1.93,0.04,3.04v23.26h-3.02v-33.33h3.65l11.32,25.05c0.23,0.53,0.46,1.07,0.69,1.62
			s0.43,1.13,0.62,1.75h0.14c0.22-0.62,0.41-1.19,0.59-1.7c0.18-0.51,0.4-1.06,0.66-1.65l11.41-25.08h3.46v33.33H281.67z"/>
		<path class="st3" d="M323.95,547.01l-3.67-9.85h-14.29l-3.58,9.85h-3.44l12.69-33.33h3.11l12.62,33.33H323.95z M313.79,519.52
			c-0.11-0.29-0.22-0.63-0.34-1.02c-0.12-0.39-0.21-0.83-0.29-1.33h-0.09c-0.09,0.5-0.2,0.94-0.31,1.33
			c-0.12,0.39-0.23,0.73-0.34,1.02l-5.39,14.83h12.2L313.79,519.52z"/>
		<path class="st3" d="M364.45,547.01l-18.5-26.75c-0.23-0.34-0.46-0.69-0.69-1.04c-0.23-0.36-0.41-0.71-0.55-1.05h-0.12
			c0.03,0.28,0.06,0.67,0.08,1.16c0.02,0.5,0.03,1.12,0.03,1.86v25.82h-3.09v-33.33h3.42l18.2,26.42c0.28,0.42,0.53,0.81,0.75,1.17
			s0.43,0.7,0.62,1.01h0.12c-0.06-0.51-0.11-1.08-0.14-1.72c-0.03-0.63-0.05-1.34-0.05-2.11v-24.77h3.11v33.33H364.45z"/>
		<path class="st3" d="M388.39,547.01h-3.09v-33.33h3.09V547.01z"/>
		<path class="st3" d="M404.76,542.13c0.56,0.42,1.17,0.79,1.85,1.13c0.67,0.33,1.36,0.61,2.07,0.84c0.71,0.23,1.41,0.4,2.13,0.51
			c0.71,0.12,1.39,0.17,2.04,0.17c2.53,0,4.42-0.49,5.67-1.46c1.25-0.98,1.88-2.38,1.88-4.21c0-0.88-0.15-1.65-0.44-2.31
			c-0.29-0.66-0.75-1.27-1.37-1.85c-0.62-0.57-1.4-1.14-2.35-1.71c-0.94-0.57-2.06-1.2-3.35-1.92c-1.43-0.77-2.65-1.51-3.66-2.2
			c-1.02-0.69-1.84-1.39-2.49-2.11c-0.64-0.72-1.12-1.5-1.42-2.34c-0.3-0.84-0.45-1.79-0.45-2.86c0-1.35,0.29-2.56,0.86-3.63
			c0.57-1.07,1.35-1.98,2.32-2.73c0.98-0.75,2.12-1.33,3.43-1.73c1.31-0.4,2.71-0.6,4.19-0.6c2.62,0,4.81,0.36,6.58,1.09v3.42
			c-1.97-1.13-4.28-1.7-6.93-1.7c-0.99,0-1.92,0.12-2.8,0.36c-0.88,0.24-1.64,0.59-2.3,1.06c-0.66,0.46-1.18,1.04-1.56,1.73
			c-0.38,0.69-0.57,1.49-0.57,2.41c0,0.87,0.13,1.62,0.38,2.24c0.26,0.63,0.67,1.22,1.23,1.78s1.31,1.11,2.23,1.66
			s2.05,1.18,3.38,1.89c1.39,0.74,2.61,1.47,3.65,2.17s1.9,1.44,2.59,2.21c0.69,0.77,1.2,1.58,1.54,2.44
			c0.34,0.86,0.51,1.82,0.51,2.87c0,1.46-0.27,2.74-0.81,3.85c-0.54,1.11-1.3,2.03-2.28,2.75c-0.98,0.73-2.14,1.28-3.49,1.65
			c-1.35,0.37-2.83,0.56-4.44,0.56c-0.53,0-1.15-0.04-1.88-0.13c-0.73-0.08-1.46-0.21-2.21-0.37c-0.74-0.16-1.45-0.36-2.13-0.58
			s-1.22-0.47-1.64-0.73V542.13z"/>
		<path class="st3" d="M449.05,516.52v30.49h-3.09v-30.49h-9.6v-2.83h22.31v2.83H449.05z"/>
		<path class="st3" d="M476.24,547.01h-3.09v-33.33h3.09V547.01z"/>
		<path class="st3" d="M516.31,545.78c-2.57,1.21-5.51,1.81-8.81,1.81c-2.36,0-4.49-0.42-6.41-1.24c-1.92-0.83-3.56-1.98-4.92-3.45
			c-1.36-1.47-2.4-3.22-3.14-5.25c-0.74-2.03-1.1-4.25-1.1-6.65c0-2.53,0.39-4.88,1.17-7.05c0.78-2.18,1.9-4.07,3.36-5.67
			s3.22-2.86,5.29-3.78s4.39-1.37,6.96-1.37c2.83,0,5.37,0.43,7.6,1.3v3.3c-2.39-1.19-4.93-1.79-7.65-1.79
			c-2.15,0-4.07,0.37-5.74,1.12c-1.67,0.74-3.08,1.78-4.23,3.1c-1.15,1.33-2.02,2.89-2.63,4.69c-0.6,1.81-0.91,3.78-0.91,5.92
			c0,1.92,0.27,3.73,0.81,5.43c0.54,1.7,1.34,3.18,2.41,4.45s2.38,2.28,3.96,3.02c1.58,0.74,3.42,1.12,5.51,1.12
			c3.21,0,6.03-0.67,8.46-2.02V545.78z"/>
		<path class="st3" d="M554.01,547.01l-3.67-9.85h-14.29l-3.58,9.85h-3.44l12.69-33.33h3.11l12.62,33.33H554.01z M543.85,519.52
			c-0.11-0.29-0.22-0.63-0.34-1.02c-0.12-0.39-0.21-0.83-0.29-1.33h-0.09c-0.09,0.5-0.2,0.94-0.31,1.33
			c-0.12,0.39-0.23,0.73-0.34,1.02l-5.39,14.83h12.2L543.85,519.52z"/>
	</g>
</g>
</svg>
