<?xml version="1.0" encoding="UTF-8" standalone="no"?>
<!-- Generator: Adobe Illustrator 24.1.2, SVG Export Plug-In . SVG Version: 6.00 Build 0)  -->

<svg
   xmlns:dc="http://purl.org/dc/elements/1.1/"
   xmlns:cc="http://creativecommons.org/ns#"
   xmlns:rdf="http://www.w3.org/1999/02/22-rdf-syntax-ns#"
   xmlns:svg="http://www.w3.org/2000/svg"
   xmlns="http://www.w3.org/2000/svg"
   xmlns:sodipodi="http://sodipodi.sourceforge.net/DTD/sodipodi-0.dtd"
   xmlns:inkscape="http://www.inkscape.org/namespaces/inkscape"
   version="1.1"
   id="Livello_1"
   x="0px"
   y="0px"
   viewBox="0 0 595.28 595.28"
   style="enable-background:new 0 0 595.28 595.28;"
   xml:space="preserve"
   sodipodi:docname="A-umanistica.svg"
   inkscape:version="0.92.4 (5da689c313, 2019-01-14)"><metadata
   id="metadata27"><rdf:RDF><cc:Work
       rdf:about=""><dc:format>image/svg+xml</dc:format><dc:type
         rdf:resource="http://purl.org/dc/dcmitype/StillImage" /></cc:Work></rdf:RDF></metadata><defs
   id="defs25" /><sodipodi:namedview
   pagecolor="#ffffff"
   bordercolor="#666666"
   borderopacity="1"
   objecttolerance="10"
   gridtolerance="10"
   guidetolerance="10"
   inkscape:pageopacity="0"
   inkscape:pageshadow="2"
   inkscape:window-width="1366"
   inkscape:window-height="705"
   id="namedview23"
   showgrid="false"
   inkscape:zoom="1"
   inkscape:cx="297.64001"
   inkscape:cy="297.64001"
   inkscape:window-x="-8"
   inkscape:window-y="-8"
   inkscape:window-maximized="1"
   inkscape:current-layer="Livello_1" />
<style
   type="text/css"
   id="style2">
	.st0{fill:url(#SVGID_1_);}
	.st1{fill:url(#SVGID_2_);}
	.st2{fill:#3C74BA;}
	.st3{font-family:'SegoeUI-Semilight';}
	.st4{font-size:47.5943px;}
	.st5{letter-spacing:9;}
</style>
<g
   id="g18">
	<linearGradient
   id="SVGID_1_"
   gradientUnits="userSpaceOnUse"
   x1="452.0726"
   y1="312.7235"
   x2="178.6258"
   y2="268.298">
		<stop
   offset="0"
   style="stop-color:#1A578E"
   id="stop4" />
		<stop
   offset="1"
   style="stop-color:#45B6E9"
   id="stop6" />
	</linearGradient>
	<path
   class="st0"
   d="M499.92,157.29c-10.28-3.8-20.39-6.19-30.13-8.01v0c-0.04-0.01-0.08-0.01-0.12-0.02   c-0.43-0.08-0.86-0.16-1.28-0.24h-0.06l-0.01,0.01c-15.98-2.79-30.85-4.03-44.62-4.03c-19.29,0-36.43,2.4-51.48,6.24   c-56.99,15.71-86.98,52.65-86.98,52.65c-12.55-13.09-26-23.32-39.74-31.47c-39.35-22.41-83.07-27.23-113.02-27.23   c-1.7,0-3.35,0.02-4.96,0.04c-11.48,0.54-21.95,1.73-31,3.15h-0.06c-20.64,3.33-33.73,7.91-33.73,7.91l132.19,270.34   c8.03-5.47,15.71-7.85,22.37-8.75h0.06l10.65,23.86c7.2-1.31,13.66-1.85,19.44-1.85c27.55,0,39.34,12.32,39.34,12.32   c9.53-9.53,27.6-11.34,40.01-11.34c7.67,0,13.18,0.69,13.18,0.69l10-22.49l0.59-1.43h0.06l0.02-0.05   c16.54,3.3,23.81,9.54,23.81,9.54L499.92,157.29z M199.16,413.1L76.58,162.44c3.83-0.98,8.59-2.08,14.1-3.14l112.99,251.96   C202.15,411.81,200.64,412.43,199.16,413.1z M247.44,430.16c-4.37,0-8.91,0.28-13.56,0.85l-7.63-17.08   c-0.11-0.24-0.22-0.47-0.34-0.69L110.76,156.32c5.67-0.62,11.38-1.07,17.08-1.34c1.51-0.03,3.06-0.04,4.65-0.04h0   c28.54,0,70.46,4.5,108.12,25.91c12.8,7.6,24.53,16.69,34.92,27.05l1.42,227.31C269.67,432.42,259.93,430.16,247.44,430.16z    M341.57,413.91l-0.55,1.32l-7.15,16.08c-2.05-0.1-4.45-0.18-7.07-0.18c-9.18,0-20.38,0.93-30.37,4.38l-1.42-227.94   c7.67-8.19,35.05-34.59,79.71-46.92c15.41-3.92,31.89-5.91,48.98-5.91c10.36,0,21.07,0.73,31.99,2.18L341.66,413.7   C341.63,413.77,341.6,413.84,341.57,413.91z M362.82,410.71l111.26-250.64c4.41,0.94,8.5,1.95,12.37,3.06L370.07,413.47   C367.97,412.54,365.56,411.6,362.82,410.71z"
   id="path9" />
	<linearGradient
   id="SVGID_2_"
   gradientUnits="userSpaceOnUse"
   x1="482.4668"
   y1="125.642"
   x2="209.02"
   y2="81.2165">
		<stop
   offset="0"
   style="stop-color:#1A578E"
   id="stop11" />
		<stop
   offset="1"
   style="stop-color:#45B6E9"
   id="stop13" />
	</linearGradient>
	<path
   class="st1"
   d="M289.07,156.68c14.81,0,41.39-55.97,41.39-80.51c0-24.54-19.89-44.43-44.43-44.43   c-24.54,0-44.43,19.89-44.43,44.43C241.6,100.71,271.22,156.68,289.07,156.68z M251.34,76.17c0-19.13,15.56-34.69,34.69-34.69   s34.69,15.56,34.69,34.69c0,22.01-22.9,66.08-32,70.66c-3.03-0.98-11.85-8.46-22.14-27C257.6,103.7,251.34,85.74,251.34,76.17z"
   id="path16" />
</g>
<text
   class="st2 st3 st4 st5"
   id="text20"
   style="font-style:normal;font-variant:normal;font-weight:bold;font-stretch:normal;font-size:47.59466553px;font-family:'Century Gothic';-inkscape-font-specification:'Century Gothic, Bold';font-variant-ligatures:normal;font-variant-caps:normal;font-variant-numeric:normal;font-feature-settings:normal;text-align:start;letter-spacing:9;writing-mode:lr-tb;text-anchor:start;fill:#3c74ba"
   x="23.479"
   y="531.05682">AREA UMANISTICA</text>

</svg>