<?xml version="1.0" encoding="utf-8"?>
<!-- Generator: Adobe Illustrator 24.1.2, SVG Export Plug-In . SVG Version: 6.00 Build 0)  -->
<svg version="1.1" id="Livello_1" xmlns="http://www.w3.org/2000/svg" xmlns:xlink="http://www.w3.org/1999/xlink" x="0px" y="0px"
	 viewBox="0 0 595.28 595.28" style="enable-background:new 0 0 595.28 595.28;" xml:space="preserve">
<style type="text/css">
	.st0{fill:url(#SVGID_1_);}
	.st1{fill:url(#SVGID_2_);}
</style>
<g>
	<linearGradient id="SVGID_1_" gradientUnits="userSpaceOnUse" x1="57.6378" y1="297.6378" x2="293.199" y2="297.6378">
		<stop  offset="0" style="stop-color:#1FAA65"/>
		<stop  offset="1" style="stop-color:#007876"/>
	</linearGradient>
	<path class="st0" d="M285.84,410.21l-0.89-4.4c-0.39-2.53-0.9-5.05-1.54-7.56l-1.55-7.62c2.61,5.55,3.85,9.05,3.87,9.12l7.47,21.49
		l-1.43-312.48l-6.82,9.62c-23.59,33.28-41.22,68.99-51.22,103.59c-27.29-19.16-49.51-61.87-49.74-62.33l-2.35-4.56l-3.67,3.59
		c-12.9,12.65-18.93,54.89-19.29,90.61c-45-9.93-74.36-49.35-74.66-49.76l-7.06-9.63l0.22,11.93c0.85,46.13,8.66,83.86,23.17,112.42
		c-19.91-7.84-35.66-17.68-35.84-17.79l-6.87-4.32l1.1,8.04c5.74,41.96,22.9,81.44,49.63,114.2c26.38,32.33,60.25,55.94,97.93,68.28
		c7.89,2.59,15.38,3.87,22.4,3.87c18.25,0,33.4-8.67,44.49-25.71c9.77-15.01,14.01-32.84,12.32-50.53L285.84,410.21z M239.63,228.95
		l0-0.01c8.56-31.9,23.93-64.95,44.68-96.24l1.13,248.13c-2.26-4.28-5.08-9.18-8.49-14.39l-0.01-0.03l-0.41-0.61
		c-8.09-12.23-17.41-22.99-27.69-31.99C230.47,317.72,226.85,276.56,239.63,228.95z M180.1,168.32
		c7.21,12.79,27.23,45.53,51.51,61.37c-12.85,49.97-8.22,91.88,12.26,109.8c9.61,8.4,18.34,18.45,25.96,29.86l0.08,0.39
		c-7.89-10.65-18.33-19.34-30.58-25.14c-14.69-6.96-31.73-12.59-49.31-16.3c-4.24-3.31-7.68-5.89-10.23-7.65
		c-7.97-5.52-13.41-32.36-13.54-66.78C166.1,216.95,171.87,182.34,180.1,168.32z M158.69,257.02c0.26,19.07,2.41,56.65,15.02,68.43
		c-8.26-1.13-16.15-1.71-23.22-1.71c-1.73,0-3.41,0.04-5.04,0.11c-9.74,0.42-21.32-1.51-34.43-5.75
		c-15.28-26.07-23.99-61.51-25.93-105.49C96.99,225.69,123.01,249.76,158.69,257.02z M266.84,456.68
		c-13.47,20.69-33.04,27.01-58.19,18.77c-72.85-23.86-127.57-89.5-141.2-168.5c8.09,4.54,22.39,11.91,38.51,17.42l0.01,0.02
		l1.33,0.44c14.54,4.84,27.49,7.05,38.48,6.57c11.71-0.51,26.56,0.95,41.8,4.11c17.32,3.59,34.09,9.1,48.49,15.92
		c19.3,9.14,33.7,26.17,39.5,46.72c0.16,0.57,0.29,1.14,0.43,1.7l1.48,7.3C280.08,424.41,276.37,442.04,266.84,456.68z"/>
	<linearGradient id="SVGID_2_" gradientUnits="userSpaceOnUse" x1="302.0766" y1="297.6378" x2="537.6378" y2="297.6378">
		<stop  offset="0" style="stop-color:#1FAA65"/>
		<stop  offset="1" style="stop-color:#007876"/>
	</linearGradient>
	<path class="st1" d="M309.78,410.28c-1.69,17.69,2.55,35.52,12.32,50.53c11.09,17.03,26.23,25.71,44.49,25.71
		c7.02,0,14.51-1.28,22.4-3.87c37.68-12.34,71.55-35.96,97.93-68.28c26.73-32.75,43.89-72.24,49.63-114.2l1.1-8.04l-6.87,4.32
		c-0.18,0.11-15.92,9.95-35.84,17.79c14.51-28.56,22.31-66.29,23.17-112.42l0.22-11.93l-7.06,9.63
		c-0.3,0.41-29.66,39.83-74.66,49.76c-0.36-35.72-6.39-77.95-19.29-90.61l-3.67-3.59l-2.35,4.56c-0.23,0.45-22.45,43.16-49.74,62.33
		c-10-34.61-27.63-70.31-51.22-103.59l-6.82-9.62l-1.43,312.48l7.47-21.49c0.02-0.07,1.25-3.56,3.87-9.12l-1.55,7.62
		c-0.64,2.51-1.15,5.03-1.54,7.56l-0.89,4.4L309.78,410.28z M346.43,333.8c-10.29,9-19.6,19.76-27.69,31.99l-0.41,0.61l-0.01,0.03
		c-3.41,5.21-6.24,10.11-8.49,14.39l1.13-248.13c20.75,31.28,36.12,64.34,44.68,96.24l0,0.01
		C368.43,276.56,364.81,317.72,346.43,333.8z M429.04,253.86c-0.13,34.43-5.57,61.27-13.54,66.78c-2.55,1.76-6,4.34-10.23,7.65
		c-17.58,3.71-34.62,9.34-49.31,16.3c-12.25,5.8-22.69,14.5-30.58,25.14l0.08-0.39c7.62-11.41,16.35-21.46,25.96-29.86
		c20.48-17.92,25.11-59.83,12.26-109.8c24.27-15.84,44.3-48.58,51.51-61.37C423.4,182.34,429.18,216.95,429.04,253.86z
		 M510.19,212.6c-1.94,43.98-10.65,79.42-25.93,105.49c-13.11,4.24-24.69,6.17-34.43,5.75c-1.62-0.07-3.31-0.11-5.04-0.11
		c-7.07,0-14.96,0.59-23.22,1.71c12.61-11.78,14.77-49.36,15.02-68.43C472.27,249.76,498.29,225.69,510.19,212.6z M317.78,407.16
		l1.48-7.3c0.15-0.57,0.27-1.14,0.43-1.7c5.81-20.55,20.21-37.57,39.5-46.72c14.41-6.83,31.18-12.33,48.49-15.92
		c15.24-3.16,30.09-4.62,41.8-4.11c10.99,0.48,23.95-1.73,38.48-6.57l1.33-0.44l0.01-0.02c16.12-5.51,30.42-12.88,38.51-17.42
		c-13.64,79-68.36,144.63-141.2,168.5c-25.14,8.24-44.72,1.92-58.19-18.77C318.9,442.04,315.2,424.41,317.78,407.16z"/>
</g>
</svg>
