<?xml version="1.0" encoding="utf-8"?>
<!-- Generator: Adobe Illustrator 24.1.2, SVG Export Plug-In . SVG Version: 6.00 Build 0)  -->
<svg version="1.1" id="Livello_1" xmlns="http://www.w3.org/2000/svg" xmlns:xlink="http://www.w3.org/1999/xlink" x="0px" y="0px"
	 viewBox="0 0 595.28 595.28" style="enable-background:new 0 0 595.28 595.28;" xml:space="preserve">
<style type="text/css">
	.st0{fill:url(#SVGID_1_);}
	.st1{fill:none;stroke:url(#SVGID_2_);stroke-width:5.2384;stroke-miterlimit:10;}
	.st2{fill:#FFFFFF;}
</style>
<g>
	<linearGradient id="SVGID_1_" gradientUnits="userSpaceOnUse" x1="304.4164" y1="298.6638" x2="553.7272" y2="296.6118">
		<stop  offset="0.2533" style="stop-color:#1FAA65"/>
		<stop  offset="1" style="stop-color:#007876"/>
	</linearGradient>
	<circle class="st0" cx="429.07" cy="297.64" r="124.66"/>
	<linearGradient id="SVGID_2_" gradientUnits="userSpaceOnUse" x1="281.6356" y1="298.8513" x2="576.5079" y2="296.4243">
		<stop  offset="0.2533" style="stop-color:#1FAA65"/>
		<stop  offset="1" style="stop-color:#007876"/>
	</linearGradient>
	<circle class="st1" cx="429.07" cy="297.64" r="144.82"/>
	<path d="M125.21,300.06c5.12-44.92-28.12-60.97-71.28-51.45c-21.32,4.71-31.42,20.77-32.42,45.05
		c-1.32,31.76,7.71,51.58,32.55,58.62c23.42,6.63,48.34,8.02,73.75,11.89c0-14.03,0-23.73,0-33.64c-5.18-0.33-9.47-0.6-13.51-0.85
		C118.27,319.28,124.08,309.93,125.21,300.06z M73.78,335.47c-6.77,0-12.26-15.77-12.26-35.22c0-19.45,5.49-35.22,12.26-35.22
		c6.77,0,12.26,15.77,12.26,35.22C86.04,319.71,80.55,335.47,73.78,335.47z"/>
	<path d="M250.56,351.94c6.58,0,12.01,0,18.14,0c0-7.24,0-13.63,0-21.08c-6.94,0-12.43,0-18.14,0
		C250.56,338.44,250.56,345.17,250.56,351.94z"/>
	<path class="st2" d="M458.41,317.98c1.47-2.48,1.75-3.64,2.47-4.05c9.95-5.73,20.02-11.24,29.93-17.04
		c7.33-4.29,17.92-8.25,14.23-18.5c-2.47-6.85-10.62-11.92-16.79-17.13c-6.58-5.55-14.63-9.55-20.59-15.63
		c-10.22-10.42-24.35-10.42-33.85,0.15c-4.31,4.8-10.27,9.44-16.34,11.15c-36.56,10.29-61.87,39.36-65.62,76.79
		c-1.43,14.28,5.98,22.7,20.42,22.8c19.7,0.14,39.4,0.04,59.11,0.04c7.29,0,14.57,0,21.86,0c0.37-2.33,0.74-4.65,1.1-6.98
		c-8.47-2.3-16.95-4.61-26.59-7.22c0.91-2.32,1.17-3.83,1.99-4.92c7.2-9.53,11.15-19.23,1.47-29.48
		c-10.1-10.69-19.33-6.06-28.99,1.26c-2.77,2.1-7.53,1.6-11.38,2.29c8.26-15.2,20.05-20.79,35.05-17.86
		c13.06,2.55,16.1,13.63,21.7,23.97c7.26,13.42,17.65,26.07,29.4,35.83c5.98,4.97,17.88,2.88,27.11,3.98
		c0.79-1.67,1.59-3.35,2.38-5.02c-3.3-2.34-6.54-6.61-9.92-6.72C476.55,345.04,469.73,328.63,458.41,317.98z"/>
	<path d="M184.32,351.56c22.33,0,39.33,0,60.7,0c-4.74-11.55-8.98-20.19-11.85-29.26c-4.76-15.01-9.24-30.14-12.91-45.47
		c-7.84-32.76-9.34-30.86-40.13-30.41c-14.06,0.21-20.1,3.69-22.97,17.47c-4.08,19.58-10.37,38.71-16.12,57.92
		c-2.86,9.56-6.61,18.86-10.64,30.22c18.98,0,33.63,0,52.83,0c-3.62-8.77-6.77-15.54-9.14-22.57c-0.93-2.77-0.4-8.77-0.09-8.8
		c6.35-0.61,12.78-0.73,19.14-0.28c0.37,0.03,1.21,6,0.31,8.71C191.11,336.13,187.92,342.89,184.32,351.56z M178.1,299.21
		l7.33-22.81l7.38,22.81H178.1z"/>
</g>
</svg>
